<svg width="74" height="71" viewBox="0 0 74 71" fill="none" xmlns="http://www.w3.org/2000/svg">
<g id="&#240;&#159;&#166;&#134; icon &#34;twin leaves&#34;">
<path id="Vector" d="M74 0.0738658C68.9564 2.65402 59.7075 14.461 50.9118 27.9832C40.1725 38.0012 32.9539 57.5325 28.7405 70.2148C28.4318 68.6516 28.1578 67.1534 27.9103 65.7113C27.6189 64.0493 27.3796 62.4536 27.1738 60.9451C25.6498 49.761 26.2742 42.5682 28.278 36.4676C29.5973 32.4557 31.5155 28.9028 33.8015 24.9883C40.6269 13.3141 64.04 -1.16012 74 0.0738658Z" fill="#5A96A4" fill-opacity="0.6"/>
<path id="Vector_2" d="M74 0.0738525C56.1277 18.746 75.0684 60.4949 31.2137 71C36.0261 58.7886 41.9635 43.2235 50.8609 28.0718C50.8782 28.0393 50.8956 28.0172 50.9118 27.9847C59.7074 14.461 68.9564 2.65401 74 0.0738525Z" fill="#5A96A4" fill-opacity="0.6"/>
<path id="Vector_3" d="M74 0.0738525C56.1277 18.746 75.0684 60.4949 31.2137 71C36.0261 58.7886 41.9635 43.2235 50.8609 28.0718C50.8782 28.0393 50.8956 28.0172 50.9118 27.9847C59.7074 14.461 68.9564 2.65401 74 0.0738525Z" fill="#C9F5FF" fill-opacity="0.6"/>
<path id="Vector_4" d="M25.7088 36.4677C23.705 42.5682 23.0794 49.7611 24.6046 60.9452C24.8104 62.4537 25.0497 64.0494 25.3411 65.7114C12.6072 63.4929 9.1731 58.4418 4.97703 50.2969C0.353148 41.3106 -1.62521 16.932 1.55103 8.41516C5.26725 21.9167 18.5666 24.4865 25.7088 36.4677Z" fill="#5A96A4" fill-opacity="0.6"/>
<path id="Vector_5" d="M24.6046 60.9452C15.7072 48.319 1.79965 17.9269 1.55106 8.41663C5.26728 21.9182 18.5666 24.4865 25.7088 36.4692C23.705 42.5682 23.0806 49.7611 24.6046 60.9452Z" fill="#C9F5FF" fill-opacity="0.6"/>
</g>
</svg>
